# xmcd CD database file
#
# Track frame offsets:
#	150
#	34852
#	73167
#	102268
#	125812
#	142853
#	181849
#	228749
#	274534
#	301281
#
# Disc length: 4241 seconds
#
# Revision: 0
# Processed by: cddbd v1.5.2PL0 Copyright (c) Steve Scherf et al.
# Submitted via: CDex 1.51
#
DISCID=8c108f0a
DTITLE=Buschfunk Blues Band - 25 Jahre Buschfunk CD1
DYEAR=2014
DGENRE=Blues
TTITLE0=Blues Overture
TTITLE1=Whipping Post
TTITLE2=Schmidt, Peter - Thunder Road 
TTITLE3=Schmidt, Peter - A Soul Full Of Blues 
TTITLE4=Kerth, Jürgen - What's Going On 
TTITLE5=Kerth, Jürgen - He, Junge Mutti 
TTITLE6=Wroblewska, Pascal von - Riders On The Storm 
TTITLE7=Wroblewska, Pascal von - Smoke On The Water
TTITLE8=Dziuk, Danny - Hauptsache Wind 
TTITLE9=Dziuk, Danny - Girl From North Country 
EXTD=YEAR: 2014
EXTT0=
EXTT1=
EXTT2=
EXTT3=
EXTT4=
EXTT5=
EXTT6=
EXTT7=
EXTT8=
EXTT9=
PLAYORDER=
